<!DOCTYPE svg PUBLIC "-//W3C//DTD SVG 1.1//EN" "http://www.w3.org/Graphics/SVG/1.1/DTD/svg11.dtd">
<!-- Uploaded to: SVG Repo, www.svgrepo.com, Transformed by: SVG Repo Mixer Tools -->
<svg version="1.1" id="Capa_1" xmlns="http://www.w3.org/2000/svg" xmlns:xlink="http://www.w3.org/1999/xlink" width="800px" height="800px" viewBox="-76.24 -76.24 515.50 515.50" xml:space="preserve" fill="#000000" stroke="#000000" stroke-width="14.157974999999999">
<g id="SVGRepo_bgCarrier" stroke-width="0"/>
<g id="SVGRepo_tracerCarrier" stroke-linecap="round" stroke-linejoin="round"/>
<g id="SVGRepo_iconCarrier"> <g> <g> <g> <path style="fill:#030303;" d="M181.512,363.024C81.43,363.024,0,281.601,0,181.513C0,81.424,81.43,0,181.512,0 c100.083,0,181.513,81.424,181.513,181.513C363.025,281.601,281.595,363.024,181.512,363.024z M181.512,11.71 C87.88,11.71,11.71,87.886,11.71,181.513s76.17,169.802,169.802,169.802c93.633,0,169.803-76.175,169.803-169.802 S275.145,11.71,181.512,11.71z"/> </g> </g> <g> <polygon style="fill:#030303;" points="147.957,258.935 83.068,194.046 91.348,185.767 147.957,242.375 271.171,119.166 279.451,127.445 "/> </g> </g> </g>
</svg>